De serie draait om Alf, een buitenaards wezen dat is gevlucht van zijn thuisplaneet Melmak omdat deze op het punt van ontploffen stond. Hij volgt met zijn ruimteschip het radiosignaal van een amateurradiozender en belandt zo op aarde. Daar stort zijn schip neer in de garage van de familie Tanner, een middenklas familie bestaande uit sociaal werker Willie (Max Wright), zijn vrouw Kate (Anne Schedeen) en hun twee kinderen: tienerdochter Lynn (Andrea Elson) en zoon Brian (Benji Gregory).

Omdat Alf niet terug kan naar Melmak wordt hij een lid van het gezin. De kat van de familie Tanner, genaamd Lucky, is zijn leven sindsdien niet meer zeker aangezien katten een delicatesse zijn op Melmak. Gelukkig voor Lucky krijgt Alf later in de serie meer respect voor hem.

Doordat de familie Alfs bestaan geheim besluit te houden (vooral omdat er genoeg wetenschappers en militairen zijn die Alf zouden willen onderzoeken) ontstaan er vele komische situaties. Vooral de spontane bezoekjes van de buren, de familie Ochmonek, leveren de nodige hilariteit op. Alf houdt zich over het algemeen verborgen in de keuken als er mensen op bezoek komen. Gedurende de serie leert hij buiten de Tanners een paar andere mensen kennen zoals Willie's broer Neal, Kate's moeder Dorothy, het neefje van de Ochmoneks; Jack, de psychiater Larry, en Jody, een blinde vrouw die nooit ontdekt dat Alf geen mens is, hoewel ze wel doorheeft dat hij klein en erg behaard is. Ook leert hij steeds meer over het Aardse leven en de Aardse cultuur. Deze komt vaak als vreemd op hem over, terwijl Alfs gedrag juist vreemd is voor de Tanners.

Tijdens de laatste aflevering wordt hij even herenigd met zijn vriendin Rhonda en vriend Skip, welke de ontploffing van de planeet Melmak ook overleefd hebben. Hij besluit niet met ze mee te gaan en op aarde te blijven. Kort daarop wordt hij echter gevangen door een groep geleerden die hem al vanaf het begin in de gaten hadden.
 
1 Stop in the Name of Love 3 oktober 1988 
2 Stairway to Heaven 10 oktober 1988 
3 Breaking Up Is Hard to Do 17 oktober 1988 
4 Tonight, Tonight: Part 1 24 oktober 1988 
5 Tonight, Tonight: Part 2 24 oktober 1988 
6 Promises, Promises 31 oktober 1988 
7 Turkey in the Straw: Part 1 14 november 1988 
8 Turkey in the Straw: Part 2 15 november 1988 
9 Changes 21 november 1988 
10 My Back Pages 28 november 1988 
11 Alone Again, Naturally 5 december 1988 
12 Do You Believe in Magic? 12 december 1988 
13 Hide Away 9 januari 1989
14 Fight Back 16 januari 1989 
15 Suspicious Minds 23 januari 1989 
16 Baby Love 6 februari 1989 
17 Running Scared 13 februari 1989 
18 Standing in the Shadows of Love 20 februari 1989 
19 Superstition 27 februari 1989 
20 Torn Between Two Lovers 6 maart 1989 
21 Funeral for a Friend 20 maart 1989 
22 Don't Be Afraid of the Dark 27 maart 1989 
23 Have You Seen Your Mother, Baby, Standing in the Shadow? 10 april 1989 
24 Like an Old Time Movie 17 april 1989 
25 Shake, Rattle and Roll 1 mei 1989 
26 Having My Baby 8 mei 1989 

Media info:

General
Complete name                    : E:\torrent2\ALF - Season 3 (NL subs) tvrip. Mkv.xvid.AC3.2.0-ACB-Team\ALF - Season 3 (NL subs) tvrip. Mkv.xvid.AC3.2.0-ACB-Team.mkv
Format                           : Matroska
File size                        : 4.62 GiB
Duration                         : 9h 9mn
Overall bit rate                 : 1 205 Kbps
Encoded date                     : UTC 2011-07-17 08:52:15
Writing application              : mkvmerge v3.2.0 ('Beginnings') built on Feb 12 2010 16:46:17
Writing library                  : libebml v0.7.9 + libmatroska v0.8.1

Video
ID                               : 1
Format                           : MPEG-4 Visual
Format profile                   : Advanced Simple@L5
Format settings, BVOP            : Yes
Format settings, QPel            : No
Format settings, GMC             : No warppoints
Format settings, Matrix          : Default (H.263)
Codec ID                         : XVID
Codec ID/Hint                    : XviD
Duration                         : 9h 9mn
Bit rate                         : 989 Kbps
Width                            : 544 pixels
Height                           : 400 pixels
Display aspect ratio             : 4:3
Frame rate                       : 29.970 fps
Color space                      : YUV
Chroma subsampling               : 4:2:0
Bit depth                        : 8 bits
Scan type                        : Progressive
Bits/(Pixel*Frame)               : 0.152
Stream size                      : 3.79 GiB (82%)
Writing library                  : XviD 1.2.1 (UTC 2008-12-04)

Audio
ID                               : 2
Format                           : AC-3
Format/Info                      : Audio Coding 3
Format profile                   : Dolby Digital
Mode extension                   : CM (complete main)
Codec ID                         : A_AC3
Duration                         : 9h 9mn
Bit rate mode                    : Constant
Bit rate                         : 192 Kbps
Channel(s)                       : 2 channels
Channel positions                : Front: L R
Sampling rate                    : 48.0 KHz
Bit depth                        : 16 bits
Stream size                      : 754 MiB (16%)
Language                         : English

Text
ID                               : 3
Format                           : UTF-8
Codec ID                         : S_TEXT/UTF8
Codec ID/Info                    : UTF-8 Plain Text
Language                         : Dutch

Menu
00:00:00.000                     : en:Alf.301_Stop In The Name Of Love
00:21:20.000                     : en:Alf.302_Stairway To Heaven
00:42:50.000                     : en:Alf.303_Breaking Up Is Hard To Do
01:03:57.000                     : en:Alf.304.305_Tonight, Tonight part I-2
01:42:58.000                     : en:Alf.306_Promises Promises
02:04:28.000                     : en:Alf.307_Turkey In The Straw Part I
02:25:16.000                     : en:Alf.308_Turkey In The Straw Part II
02:46:47.000                     : en:Alf.309_Changes
03:08:02.000                     : en:Alf.310_ My Back Pages
03:29:31.000                     : en:Alf.311_Alone Again, Naturally
03:48:40.000                     : en:Alf.312_Do You Believe In Magic
04:10:09.000                     : en:Alf.313_Hide Away
04:31:40.000                     : en:Alf.314_Fight Back
04:53:09.000                     : en:Alf.315_Suspicious Minds
05:14:39.000                     : en:Alf.316_Baby Love
05:36:09.000                     : en:Alf.317_Running Scared
05:57:38.000                     : en:Alf.318_Standing In The Shadows Of Love
06:19:08.000                     : en:Alf.319_Superstition
06:39:46.000                     : en:Alf.320_Torn Between Two Lovers
07:01:14.000                     : en:Alf.321_Funeral For A FriendAlf.322_Don't Be Afraid Of The Dark
07:22:30.000                     : en:Alf.322_Don't Be Afraid Of The Dark
07:44:00.000                     : en:Alf.323_ Have you seen your mother...
08:05:30.000                     : en:Alf.324_Like An Old Time Movie
08:26:59.000                     : en:Alf.325_Shake, Rattle And Roll
08:48:28.000                     : en:Alf.326_Having My Baby



 